HIERARCHY
ROOT root
{
	OFFSET	0	13.1	24.9
	CHANNELS 6  Xposition Yposition Zposition Xrotation Yrotation Zrotation
	JOINT spine_1
	{
		OFFSET	0	9.99999	0
		CHANNELS 3  Xrotation Yrotation Zrotation
		JOINT spine_2
		{
			OFFSET	0	112	-10
			CHANNELS 3  Xrotation Yrotation Zrotation
			JOINT spine_3
			{
				OFFSET	0	206.5	19.3
				CHANNELS 3  Xrotation Yrotation Zrotation
				JOINT spine_4
				{
					OFFSET	0	110.4	14.6
					CHANNELS 3  Xrotation Yrotation Zrotation
					JOINT neck_1
					{
						OFFSET	0	71.8	-50.3
						CHANNELS 3  Xrotation Yrotation Zrotation
						JOINT neck_2
						{
							OFFSET	0	86.2	-25.8
							CHANNELS 3  Xrotation Yrotation Zrotation
							JOINT head_ee
							{
								OFFSET	0	179.8	-8.7
								CHANNELS 3  Xrotation Yrotation Zrotation
								End Site
								{
									OFFSET	1	0	0
								}
							}
						}
					}
					JOINT left_clavicle
					{
						OFFSET	-43.2	22.4	-70.8
						CHANNELS 3  Xrotation Yrotation Zrotation
						JOINT left_shoulder
						{
							OFFSET	-93.9	-5.79999	48.7
							CHANNELS 3  Xrotation Yrotation Zrotation
							JOINT left_elbow
							{
								OFFSET	-291.4	-30.8	15.2
								CHANNELS 3  Xrotation Yrotation Zrotation
								JOINT left_lowarm_twist
								{
									OFFSET	-110.7	-3.89999	13.6
									CHANNELS 3  Xrotation Yrotation Zrotation
									JOINT left_hand
									{
										OFFSET	-110.7	-3.89999	13.6
										CHANNELS 3  Xrotation Yrotation Zrotation
										JOINT left_ee
										{
											OFFSET	-80.8	-5.10001	12.1
											CHANNELS 3  Xrotation Yrotation Zrotation
											End Site
											{
												OFFSET	1	0	0
											}
										}
									}
								}
							}
						}
					}
					JOINT right_clavicle
					{
						OFFSET	43.2	22.4	-70.8
						CHANNELS 3  Xrotation Yrotation Zrotation
						JOINT right_shoulder
						{
							OFFSET	93.9	-5.79999	48.7
							CHANNELS 3  Xrotation Yrotation Zrotation
							JOINT right_elbow
							{
								OFFSET	291.4	-30.8	15.2
								CHANNELS 3  Xrotation Yrotation Zrotation
								JOINT right_lowarm_twist
								{
									OFFSET	110.7	-3.89999	13.6
									CHANNELS 3  Xrotation Yrotation Zrotation
									JOINT right_hand
									{
										OFFSET	110.7	-3.89999	13.6
										CHANNELS 3  Xrotation Yrotation Zrotation
										JOINT right_ee
										{
											OFFSET	80.8	-5.10001	12.1
											CHANNELS 3  Xrotation Yrotation Zrotation
											End Site
											{
												OFFSET	1	0	0
											}
										}
									}
								}
							}
						}
					}
				}
			}
		}
	}
	JOINT left_hip
	{
		OFFSET	-82.8	-127.5	0.300001
		CHANNELS 3  Xrotation Yrotation Zrotation
		JOINT left_knee
		{
			OFFSET	-28.2	-396.7	2.2
			CHANNELS 3  Xrotation Yrotation Zrotation
			JOINT left_ankle
			{
				OFFSET	-11.7	-411.3	35.4
				CHANNELS 3  Xrotation Yrotation Zrotation
				JOINT left_toes
				{
					OFFSET	0	-60	-88.6
					CHANNELS 3  Xrotation Yrotation Zrotation
					JOINT left_foot_ee
					{
						OFFSET	-22.5	-16.5	-42.2
						CHANNELS 3  Xrotation Yrotation Zrotation
						End Site
						{
							OFFSET	1	0	0
						}
					}
				}
			}
		}
	}
	JOINT right_hip
	{
		OFFSET	82.8	-127.5	0.300001
		CHANNELS 3  Xrotation Yrotation Zrotation
		JOINT right_knee
		{
			OFFSET	28.2	-396.7	2.2
			CHANNELS 3  Xrotation Yrotation Zrotation
			JOINT right_ankle
			{
				OFFSET	11.7	-411.3	35.4
				CHANNELS 3  Xrotation Yrotation Zrotation
				JOINT right_toes
				{
					OFFSET	0	-60	-88.6
					CHANNELS 3  Xrotation Yrotation Zrotation
					JOINT right_foot_ee
					{
						OFFSET	22.5	-16.5	-42.2
						CHANNELS 3  Xrotation Yrotation Zrotation
						End Site
						{
							OFFSET	1	0	0
						}
					}
				}
			}
		}
	}
}
MOTION
Frames: 7
Frame Time: 0.02
1099.08043825 736.485 -1543.03324665 119.467505523 84.9981997492 -119.561222546 0.849337 0.0655605 -0.425581 0.849433 0.0925082 -0.420547 0.84876 0.173012 -0.394315 0.848559 0.108567 -0.41669 -17.4125 9.05054 -1.1037 -17.7918 17.9979 2.41986 -0.0 0.0 -0.0 8.32237 24.315 14.2391 -20.7056 -17.995 60.1123 0.287871 -8.11599 0.0204227 -10.5899 -0.491143 1.2598 -0.547479 28.7363 8.25549 -0.0 0.0 -0.0 11.2735 -1.73752 -22.1834 1.02118 9.4757 -59.6938 1.02572 26.935 -0.245644 -65.0793 5.92034 -5.23102 -10.318 -25.4202 61.0328 0.0 0.0 0.0 12.761 2.07289 -10.3669 -46.9629 -0.968066 6.94405 21.2849 19.5364 -2.95892 -40.5079 0.0 0.0 -0.0 0.0 -0.0 2.68792 -8.7869 -3.33708 -8.55308 -0.256533 -1.28635 13.6872 11.6797 2.03358 3.69288 -0.0 -0.0 0.0 0.0 0.0 
1087.60816662 736.324 -1540.26150515 126.222453176 84.0900090983 -126.36813235 0.878218 -0.265873 -0.379573 0.878266 -0.241181 -0.395722 0.879981 -0.15933 -0.435175 0.879788 -0.226058 -0.404551 -18.828 6.75971 -4.61001 -19.09 15.4446 -1.56908 -0.0 0.0 -0.0 8.16255 24.1094 14.0379 -21.3989 -14.8387 60.4638 0.174104 -4.92947 0.00749418 -10.5982 -0.491617 1.26074 -0.12261 29.3824 10.807 -0.0 0.0 -0.0 11.0378 0.437971 -21.8451 1.98233 11.691 -60.6037 1.1311 29.2615 -0.295286 -65.4337 5.96521 -5.23796 -10.3476 -25.6146 60.9971 0.0 0.0 0.0 13.8396 2.18761 -10.4581 -36.6267 -0.266225 5.52025 19.71 18.571 -2.74896 -40.1066 0.0 0.0 -0.0 0.0 -0.0 1.13551 -9.20509 -3.63413 -7.88399 -0.243423 -1.18452 14.8727 11.3723 2.19413 2.01932 -0.0 -0.0 0.0 0.0 0.0 
1086.72281777 736.324 -1536.26058525 132.005674454 83.581730953 -132.184869747 0.878218 -0.265873 -0.379573 0.878266 -0.241181 -0.395722 0.879981 -0.15933 -0.435175 0.879788 -0.226058 -0.404551 -18.828 6.75971 -4.61001 -19.09 15.4446 -1.56908 -0.0 0.0 -0.0 8.16255 24.1094 14.0379 -21.3989 -14.8387 60.4638 0.174104 -4.92947 0.00749418 -10.5982 -0.491617 1.26074 -0.12261 29.3824 10.807 -0.0 0.0 -0.0 11.0378 0.437971 -21.8451 1.98233 11.691 -60.6037 1.1311 29.2615 -0.295286 -65.4337 5.96521 -5.23796 -10.3476 -25.6146 60.9971 0.0 0.0 0.0 13.8396 2.18761 -10.4581 -36.6267 -0.266225 5.52025 19.71 18.571 -2.74896 -40.1066 0.0 0.0 -0.0 0.0 -0.0 1.13551 -9.20509 -3.63413 -7.88399 -0.243423 -1.18452 14.8727 11.3723 2.19413 2.01932 -0.0 -0.0 0.0 0.0 0.0 
1072.49291344 732.575 -1515.35178683 154.951473457 78.9092180797 -154.211019033 0.902314 -0.388247 -0.425781 0.902342 -0.360367 -0.449623 0.905241 -0.265938 -0.511176 0.905041 -0.343331 -0.462762 -18.2122 4.79283 -6.22331 -18.3038 12.5738 -3.94917 -0.0 0.0 -0.0 7.81865 23.7826 13.5855 -21.7579 -11.2884 60.6519 0.164374 -4.65521 0.00668119 -11.4137 -0.538995 1.3537 0.616761 29.5726 14.9355 -0.0 0.0 -0.0 10.2101 0.535628 -20.1166 1.68764 13.8635 -60.2007 1.32508 33.2795 -0.396042 -66.5526 6.10707 -5.25802 -10.0126 -24.3046 59.3292 0.0 0.0 0.0 14.5778 2.62396 -9.80152 -29.5933 0.059429 4.49092 19.3906 18.3643 -2.70615 -38.6465 0.0 0.0 -0.0 0.0 -0.0 -0.0473704 -9.01773 -3.70926 -7.79244 -0.241536 -1.1706 17.0291 9.46369 2.46104 0.817559 -0.0 -0.0 0.0 0.0 0.0 
1063.47033752 734.536 -1505.61628618 159.158043565 78.2780604025 -158.525443549 0.952974 -0.0591219 -0.470366 0.953097 -0.0290719 -0.473174 0.953368 0.06322 -0.469832 0.95306 -0.0117738 -0.47392 -18.2857 3.56799 -7.83769 -18.27 11.0824 -5.93928 -0.0 0.0 -0.0 7.52611 22.9676 13.2566 -22.1634 -8.55488 61.1897 0.173131 -4.90204 0.00741077 -12.1807 -0.584767 1.44051 1.00044 29.6199 17.0952 -0.0 0.0 -0.0 10.1521 1.3335 -20.032 2.12937 14.8432 -59.5236 1.43551 35.4149 -0.458357 -66.3485 6.08116 -5.25456 -9.65729 -23.4438 56.546 0.0 0.0 0.0 15.0059 2.99466 -9.46922 -24.9285 0.20468 3.78993 19.4245 19.5994 -2.72269 -37.7815 0.0 0.0 -0.0 0.0 -0.0 -0.681945 -8.65977 -4.05676 -5.25476 -0.180409 -0.78599 17.6854 8.45813 2.53498 -0.123886 0.0 0.0 0.0 0.0 0.0 
1054.87686335 735.386 -1494.65923677 165.150659055 75.0464623888 -164.184995298 0.857399 -0.297604 -0.424837 0.857458 -0.269968 -0.442913 0.859608 -0.178184 -0.487139 0.859366 -0.252881 -0.452886 -17.6801 2.85448 -7.39267 -17.6362 9.54344 -5.84398 -0.0 0.0 -0.0 7.47919 23.694 13.1081 -22.6546 -6.96983 60.6179 0.163433 -4.62868 0.00660511 -12.5101 -0.60478 1.47761 1.37818 29.903 19.3116 -0.0 0.0 -0.0 9.64831 2.19421 -19.0113 3.00829 16.9854 -59.7969 1.54814 37.4821 -0.525281 -66.7475 6.13182 -5.26123 -9.63028 -23.2197 56.6329 0.0 0.0 0.0 16.6082 2.89168 -9.24521 -20.1362 0.293996 3.06019 18.6983 18.4305 -2.61772 -36.7969 0.0 0.0 -0.0 0.0 -0.0 -1.33575 -8.7233 -4.31945 -5.23305 -0.179812 -0.78271 18.9178 8.0192 2.68987 -0.658827 0.0 0.0 0.0 0.0 0.0 
1047.25272225 732.377 -1483.50717471 167.303937399 73.5533443223 -166.486168327 0.817411 -0.165091 -0.439078 0.817508 -0.136817 -0.448693 0.818628 -0.0461326 -0.466815 0.818343 -0.119278 -0.453671 -17.9732 2.19342 -8.84741 -17.8548 9.03082 -7.44233 -0.0 0.0 -0.0 7.17574 23.6068 12.6825 -22.9365 -5.34288 60.7171 0.179303 -5.0759 0.00794755 -11.9746 -0.572351 1.41724 1.89094 29.9654 22.2882 -0.0 0.0 -0.0 9.68248 2.09958 -19.0797 2.61256 18.2119 -58.0737 1.6482 39.2276 -0.587381 -65.7132 6.00061 -5.24323 -9.52675 -22.9165 55.9443 0.0 0.0 0.0 17.27 3.06319 -9.15485 -16.9793 0.31937 2.57654 17.5061 17.991 -2.45919 -36.1442 0.0 0.0 -0.0 0.0 -0.0 -1.80104 -8.23337 -4.34865 -5.08516 -0.175717 -0.760384 19.738 7.8644 2.79312 -1.03467 0.0 0.0 0.0 0.0 0.0 
